<?xml version="1.0" encoding="UTF-8" standalone="no"?>
<svg
   viewBox="0 0 50 50"
   width="24"
   height="24"
   version="1.1"
   id="svg1"
   sodipodi:docname="java_icon_dark.svg"
   inkscape:version="1.3.2 (091e20e, 2023-11-25, custom)"
   xmlns:inkscape="http://www.inkscape.org/namespaces/inkscape"
   xmlns:sodipodi="http://sodipodi.sourceforge.net/DTD/sodipodi-0.dtd"
   xmlns="http://www.w3.org/2000/svg"
   xmlns:svg="http://www.w3.org/2000/svg">
  <defs
     id="defs1" />
  <sodipodi:namedview
     id="namedview1"
     pagecolor="#ffffff"
     bordercolor="#000000"
     borderopacity="0.25"
     inkscape:showpageshadow="2"
     inkscape:pageopacity="0.0"
     inkscape:pagecheckerboard="0"
     inkscape:deskcolor="#d1d1d1"
     showgrid="false"
     showguides="false"
     inkscape:zoom="13.06"
     inkscape:cx="25"
     inkscape:cy="14.203675"
     inkscape:window-width="1440"
     inkscape:window-height="854"
     inkscape:window-x="-6"
     inkscape:window-y="-6"
     inkscape:window-maximized="1"
     inkscape:current-layer="svg1" />
  <path
     d="m 19.1875,25.15625 c 0,0 -10.125,-0.144531 -10.125,2.71875 0,2.992188 13.253906,3.214844 22.71875,1.375 0,0 2.515625,-1.730469 3.1875,-2.375 -6.203125,1.265625 -20.34375,1.40625 -20.34375,0.3125 0,-1.007812 4.5625,-2.03125 4.5625,-2.03125 z m 19.46875,0 c -0.992187,0.07813 -2.0625,0.460938 -3.03125,1.15625 2.28125,-0.492187 4.21875,0.921875 4.21875,2.53125 0,3.625 -5.25,7.03125 -5.25,7.03125 0,0 8.125,-0.921875 8.125,-6.875 0,-2.703125 -1.878906,-4.015625 -4.0625,-3.84375 z M 16.75,30.71875 c -1.554687,0 -3.875,1.21875 -3.875,2.375 0,2.324219 11.6875,4.113281 20.34375,0.71875 l -3,-1.84375 c -5.867187,1.878906 -16.671875,1.265625 -13.46875,-1.25 z m 1.4375,5.21875 c -2.128906,0 -3.53125,1.285156 -3.53125,2.25 0,2.984375 12.714844,3.285156 17.75,0.25 l -3.1875,-2.03125 C 25.457031,37.996094 16.015625,38.238281 18.1875,35.9375 Z M 11.09375,38.625 C 7.625,38.554688 5.375,40.113281 5.375,41.40625 c 0,6.875 35.5,6.558594 35.5,-0.46875 0,-1.167969 -1.347656,-1.734375 -1.84375,-2 2.902344,6.71875 -29.0625,6.183594 -29.0625,2.21875 0,-0.902344 2.351563,-1.765625 4.53125,-1.34375 L 12.65625,38.75 c -0.542969,-0.08203 -1.066406,-0.113281 -1.5625,-0.125 z M 44.625,43.25 C 39.226563,48.367188 25.546875,50.222656 11.78125,47.0625 25.542969,52.695313 44.558594,49.535156 44.625,43.25 Z"
     id="path1"
     style="display:inline;fill:#71cbb3;fill-opacity:1"
     sodipodi:nodetypes="csccscccscsccsccccsccccsscscccccc" />
  <path
     d="m 28.1875,0 c 2.75,6.363281 -9.859375,10.292969 -11.03125,15.59375 -1.074219,4.871094 7.492188,10.53125 7.5,10.53125 -1.300781,-2.015625 -2.257812,-3.675781 -3.5625,-6.8125 C 18.886719,14.007813 34.535156,9.207031 28.1875,0 Z m 8.375,8.8125 c 0,0 -11.0625,0.710938 -11.625,7.78125 -0.25,3.148438 2.910156,4.804688 3,7.09375 0.07422,1.871094 -1.875,3.4375 -1.875,3.4375 0,0 3.546875,-0.675781 4.65625,-3.53125 1.230469,-3.167969 -2.398437,-5.308594 -2.03125,-7.84375 0.351563,-2.425781 7.875,-6.9375 7.875,-6.9375 z"
     id="path2"
     style="display:inline;fill:#7cffc4;fill-opacity:1"
     sodipodi:nodetypes="cccccccccccc" />
</svg>
