<?xml version="1.0" encoding="UTF-8" standalone="no"?>
<svg
   width="24"
   height="24"
   stroke="gray"
   version="1.1"
   id="svg11"
   sodipodi:docname="matplotlib_icon_light.svg"
   inkscape:version="1.4.2 (f4327f4, 2025-05-13)"
   xmlns:inkscape="http://www.inkscape.org/namespaces/inkscape"
   xmlns:sodipodi="http://sodipodi.sourceforge.net/DTD/sodipodi-0.dtd"
   xmlns="http://www.w3.org/2000/svg"
   xmlns:svg="http://www.w3.org/2000/svg">
  <defs
     id="defs11" />
  <sodipodi:namedview
     id="namedview11"
     pagecolor="#ffffff"
     bordercolor="#000000"
     borderopacity="0.25"
     inkscape:showpageshadow="2"
     inkscape:pageopacity="0.0"
     inkscape:pagecheckerboard="0"
     inkscape:deskcolor="#d1d1d1"
     inkscape:zoom="20.333248"
     inkscape:cx="11.704967"
     inkscape:cy="12.762348"
     inkscape:window-width="1440"
     inkscape:window-height="854"
     inkscape:window-x="-6"
     inkscape:window-y="-6"
     inkscape:window-maximized="1"
     inkscape:current-layer="svg11" />
  <g
     stroke-width="2"
     fill="#ffffff"
     id="g4"
     transform="matrix(0.13064,0,0,0.12896339,0.22917205,0.38006687)">
    <circle
       cx="90"
       cy="90"
       r="88"
       id="circle1"
       style="fill:#479561;fill-opacity:0;stroke:#3d3e3c;stroke-opacity:1" />
    <circle
       cx="90"
       cy="90"
       r="66"
       id="circle2"
       style="fill:#479561;fill-opacity:0;stroke:#3d3e3c;stroke-opacity:1" />
    <circle
       cx="90"
       cy="90"
       r="44"
       id="circle3"
       style="fill:#479561;fill-opacity:0;stroke:#3d3e3c;stroke-opacity:1" />
    <circle
       cx="90"
       cy="90"
       r="22"
       id="circle4"
       style="fill:#479561;fill-opacity:0;stroke:#3d3e3c;stroke-opacity:1" />
    <path
       d="M 90,2 V 178 M 152,152 28,28 M 152,28 28,152 M 178,90 H 2"
       id="path4"
       style="fill:#479561;fill-opacity:0;stroke:#3d3e3c;stroke-opacity:1" />
  </g>
  <g
     opacity="0.8"
     id="g11"
     style="fill:#479561;fill-opacity:1;stroke:#3d3e3c;stroke-opacity:1"
     transform="matrix(0.13064,0,0,0.12896339,0.22917205,0.38006687)">
    <path
       fill="#44C"
       d="m 90,90 h 18 a 18,18 0 0 0 0,-5 z"
       id="path5"
       style="fill:#479561;fill-opacity:1;stroke:#3d3e3c;stroke-opacity:1" />
    <path
       fill="#BC3"
       d="M 90,90 124,47 A 55,55 0 0 0 109,39 Z"
       id="path6"
       style="fill:#479561;fill-opacity:1;stroke:#3d3e3c;stroke-opacity:1" />
    <path
       fill="#D93"
       d="M 90,90 74,18 A 74,74 0 0 0 43,33 Z"
       id="path7"
       style="fill:#479561;fill-opacity:1;stroke:#3d3e3c;stroke-opacity:1" />
    <path
       fill="#DB3"
       d="M 90,90 32,62 a 65,65 0 0 0 -5,39 z"
       id="path8"
       style="fill:#479561;fill-opacity:1;stroke:#3d3e3c;stroke-opacity:1" />
    <path
       fill="#3BB"
       d="m 90,90 -33,16 a 37,37 0 0 0 2,5 z"
       id="path9"
       style="fill:#479561;fill-opacity:1;stroke:#3d3e3c;stroke-opacity:1" />
    <path
       fill="#3C9"
       d="m 90,90 -10,45 a 46,46 0 0 0 18,0 z"
       id="path10"
       style="fill:#479561;fill-opacity:1;stroke:#3d3e3c;stroke-opacity:1" />
    <path
       fill="#D73"
       d="m 90,90 46,58 a 74,74 0 0 0 12,-12 z"
       id="path11"
       style="fill:#479561;fill-opacity:1;stroke:#3d3e3c;stroke-opacity:1" />
  </g>
</svg>
