<?xml version="1.0" encoding="UTF-8" standalone="no"?>
<svg
   height="24"
   width="24"
   viewBox="76 64 297.006 471"
   version="1.1"
   id="svg2"
   sodipodi:docname="pandas_icon_light.svg"
   inkscape:version="1.3.2 (091e20e, 2023-11-25, custom)"
   xmlns:inkscape="http://www.inkscape.org/namespaces/inkscape"
   xmlns:sodipodi="http://sodipodi.sourceforge.net/DTD/sodipodi-0.dtd"
   xmlns="http://www.w3.org/2000/svg"
   xmlns:svg="http://www.w3.org/2000/svg">
  <defs
     id="defs2" />
  <sodipodi:namedview
     id="namedview2"
     pagecolor="#ffffff"
     bordercolor="#000000"
     borderopacity="0.25"
     inkscape:showpageshadow="2"
     inkscape:pageopacity="0.0"
     inkscape:pagecheckerboard="0"
     inkscape:deskcolor="#d1d1d1"
     showgrid="false"
     inkscape:zoom="23.641125"
     inkscape:cx="10.976635"
     inkscape:cy="12.414807"
     inkscape:window-width="1440"
     inkscape:window-height="854"
     inkscape:window-x="-6"
     inkscape:window-y="-6"
     inkscape:window-maximized="1"
     inkscape:current-layer="svg2" />
  <g
     fill-rule="evenodd"
     id="g2">
    <path
       d="M321 242.017v178.017l25.75-.267 25.75-.267.253-177.75.253-177.75H321zM159 145.5V199h52V92h-52zM76 357v178h52V179H76zm164-124.017V287H292.017l-.258-53.75-.259-53.75-25.75-.267-25.75-.267zM159 365v54h52V311h-52zm81 88v54h52V399h-52z"
       fill="#0c0454"
       id="path1"
       style="fill:#71cbb3;fill-opacity:1" />
    <path
       d="M159 255.5V281h52v-51h-52zm81 88V369h52v-51h-52z"
       fill="#f36848"
       id="path2"
       style="fill:#7cffc4;fill-opacity:1" />
  </g>
</svg>
