<?xml version="1.0" encoding="UTF-8" standalone="no"?>
<!-- Uploaded to: SVG Repo, www.svgrepo.com, Generator: SVG Repo Mixer Tools -->

<svg
   width="24px"
   height="24px"
   viewBox="0 0 32 32"
   version="1.1"
   id="svg5"
   sodipodi:docname="twig_icon_light.svg"
   inkscape:version="1.4.2 (f4327f4, 2025-05-13)"
   xmlns:inkscape="http://www.inkscape.org/namespaces/inkscape"
   xmlns:sodipodi="http://sodipodi.sourceforge.net/DTD/sodipodi-0.dtd"
   xmlns="http://www.w3.org/2000/svg"
   xmlns:svg="http://www.w3.org/2000/svg">
  <defs
     id="defs5" />
  <sodipodi:namedview
     id="namedview5"
     pagecolor="#ffffff"
     bordercolor="#000000"
     borderopacity="0.25"
     inkscape:showpageshadow="2"
     inkscape:pageopacity="0.0"
     inkscape:pagecheckerboard="0"
     inkscape:deskcolor="#d1d1d1"
     inkscape:zoom="9.4610887"
     inkscape:cx="28.960726"
     inkscape:cy="14.216123"
     inkscape:window-width="1440"
     inkscape:window-height="854"
     inkscape:window-x="-6"
     inkscape:window-y="-6"
     inkscape:window-maximized="1"
     inkscape:current-layer="svg5" />
  <title
     id="title1">file_type_twig</title>
  <path
     d="M 4.0864646,4.9588968 C 4.3634803,5.3780298 6.729744,3.2739823 8.7957311,3.7423634 10.97485,4.2369403 13.03978,7.6444913 13.921578,18.097668 a 42.482786,42.101906 0 0 1 3.743941,3.782675 q 0.560375,0.643369 1.071057,1.278355 A 12.525972,12.413671 0 0 1 18.9787,21.691733 13.004935,12.888339 0 0 1 21.073235,17.08127 20.248577,20.067038 0 0 0 17.512209,7.5124644 C 16.423178,5.9983465 12.648575,0.72460605 8.476423,1.3899796 5.7866219,1.8174952 3.7967612,4.5303333 4.0864646,4.9588968 Z"
     style="fill:#4f4f4f;stroke-width:1.05256;fill-opacity:1"
     id="path1" />
  <path
     d="m 25.048727,30.669561 c -0.33834,-2.689786 -0.473676,-4.987683 -0.528656,-6.757471 -0.09939,-3.386595 0.105731,-4.758207 0.951581,-6.031324 0.204061,-0.30911 1.361817,-2.069469 2.727864,-1.952112 1.550019,0.134123 2.339831,2.529468 2.49737,2.448785 0.18503,-0.0943 -0.380632,-3.71247 -2.677113,-4.642946 -2.749011,-1.113845 -6.673752,2.169013 -8.247032,5.400529 a 12.923522,12.807655 0 0 0 -0.906116,2.944409 34.420784,34.112184 0 0 0 -0.750691,8.592225 z"
     style="fill:#434442;stroke-width:1.05256;fill-opacity:1"
     id="path2" />
  <path
     d="m 1.6165843,13.836133 c 0.1533102,-0.468381 2.6094454,-0.271388 4.8001954,0.307015 2.6432794,0.697856 7.4011823,2.456119 12.3187383,9.017646 a 13.262919,13.14401 0 0 1 1.956027,7.508767 H 10.23156 A 23.128695,22.921334 0 0 0 10.046531,25.828575 15.753945,15.612703 0 0 0 7.4466013,18.328191 C 5.0031539,15.11868 1.4230963,14.428158 1.6165843,13.836133 Z"
     style="fill:#3d3e3c;stroke-width:1.05256;fill-opacity:1"
     id="path3" />
  <path
     d="m 17.541814,21.577519 a 1.8534675,1.8368502 0 1 1 -0.542401,-1.299312 1.8481809,1.831611 0 0 1 0.542401,1.299312 z"
     style="fill:#ffffff;stroke-width:1.05256;fill-opacity:1"
     id="path4" />
  <path
     d="m 22.484746,21.577519 a 1.8534675,1.8368502 0 1 1 -0.542401,-1.299312 1.8481809,1.831611 0 0 1 0.542401,1.299312 z"
     style="fill:#ffffff;stroke-width:1.05256;fill-opacity:1"
     id="path5" />
</svg>
