<svg width="34" height="32" viewBox="0 0 34 32" fill="none" xmlns="http://www.w3.org/2000/svg">
<path d="M16.998 2.00098C8.78359 2.00098 2.12305 8.43223 2.12305 16.3572C2.12305 22.701 6.38633 28.076 12.2965 29.976C12.3794 29.9929 12.464 30.0013 12.5488 30.001C13.1 30.001 13.3125 29.6197 13.3125 29.2885C13.3125 28.9447 13.2992 28.0447 13.2926 26.8447C12.8005 26.9533 12.2972 27.0099 11.7918 27.0135C8.92969 27.0135 8.27891 24.9197 8.27891 24.9197C7.60156 23.2635 6.62539 22.8197 6.62539 22.8197C5.33047 21.9635 6.61875 21.9385 6.71836 21.9385H6.725C8.21914 22.0635 9.00273 23.426 9.00273 23.426C9.74648 24.651 10.7426 24.9947 11.6324 24.9947C12.2208 24.9837 12.8001 24.8559 13.3324 24.6197C13.4652 23.6947 13.8504 23.0635 14.2754 22.701C10.975 22.3385 7.50195 21.1072 7.50195 15.6072C7.50195 14.0385 8.07969 12.7572 9.0293 11.7572C8.87656 11.3947 8.36523 9.93223 9.17539 7.95723C9.28406 7.93275 9.39575 7.92224 9.50742 7.92598C10.0453 7.92598 11.2605 8.11973 13.266 9.43223C15.7028 8.79054 18.28 8.79054 20.7168 9.43223C22.7223 8.11973 23.9375 7.92598 24.4754 7.92598C24.5871 7.92224 24.6988 7.93275 24.8074 7.95723C25.6176 9.93223 25.1062 11.3947 24.9535 11.7572C25.9031 12.7635 26.4809 14.0447 26.4809 15.6072C26.4809 21.1197 23.0012 22.3322 19.6875 22.6885C20.2188 23.1322 20.6969 24.0072 20.6969 25.3447C20.6969 27.2635 20.677 28.8135 20.677 29.2822C20.677 29.6197 20.8828 30.001 21.434 30.001C21.5232 30.0013 21.6122 29.993 21.6996 29.976C27.6164 28.076 31.873 22.6947 31.873 16.3572C31.873 8.43223 25.2125 2.00098 16.998 2.00098Z" fill="#3D3E3C"/>
</svg>
