<svg width="32" height="32" viewBox="0 0 32 32" fill="#71cbb3" xmlns="http://www.w3.org/2000/svg" transform="matrix(1, 0, 0, 1, 0, 0)">
    <path d="M27.7606 2.00098H4.3925C3.11562 2.00098 2 2.91973 2 4.1816V27.6016C2 28.8704 3.11562 30.001 4.3925 30.001H27.7537C29.0375 30.001 30 28.8629 30 27.6016V4.1816C30.0075 2.91973 29.0375 2.00098 27.7606 2.00098ZM10.6794 25.3404H6.66812V12.8685H10.6794V25.3404ZM8.8125 10.9722H8.78375C7.5 10.9722 6.66875 10.0166 6.66875 8.82035C6.66875 7.60223 7.52187 6.6691 8.83437 6.6691C10.1469 6.6691 10.95 7.59535 10.9787 8.82035C10.9781 10.0166 10.1469 10.9722 8.8125 10.9722ZM25.3394 25.3404H21.3281V18.521C21.3281 16.8872 20.7444 15.771 19.2931 15.771C18.1844 15.771 17.5281 16.521 17.2362 17.2516C17.1269 17.5141 17.0975 17.8716 17.0975 18.2366V25.3404H13.0862V12.8685H17.0975V14.6041C17.6812 13.7729 18.5931 12.5766 20.715 12.5766C23.3481 12.5766 25.34 14.3122 25.34 18.0541L25.3394 25.3404Z" fill="#71cbb3"/>
</svg>