<svg width="36" 
    height="41" 
    viewBox="0 0 36 41" 
    fill="rgba(0, 0, 0, 0.87)"
    xmlns="http://www.w3.org/2000/svg"
>
    <path d="M29.8125 6.40527H6.1875C5.14355 6.40655 4.14268 6.87941 3.4045 7.72012C2.66632 8.56083 2.25112 9.70071 2.25 10.8897V30.1084C2.25112 31.2973 2.66632 32.4372 3.4045 33.2779C4.14268 34.1186 5.14355 34.5915 6.1875 34.5928H29.8125C30.8564 34.5915 31.8573 34.1186 32.5955 33.2779C33.3337 32.4372 33.7489 31.2973 33.75 30.1084V10.8897C33.7489 9.70071 33.3337 8.56083 32.5955 7.72012C31.8573 6.87941 30.8564 6.40655 29.8125 6.40527ZM28.8155 13.8229L18.6905 22.7917C18.493 22.9665 18.2501 23.0614 18 23.0614C17.7499 23.0614 17.507 22.9665 17.3095 22.7917L7.18453 13.8229C7.06557 13.7206 6.96565 13.5924 6.89058 13.4457C6.81551 13.299 6.76678 13.1368 6.74722 12.9685C6.72767 12.8002 6.73768 12.6292 6.77667 12.4653C6.81567 12.3014 6.88287 12.148 6.97437 12.014C7.06587 11.88 7.17984 11.768 7.30967 11.6846C7.4395 11.6011 7.5826 11.5479 7.73064 11.528C7.87868 11.5081 8.02872 11.5219 8.17203 11.5687C8.31535 11.6154 8.44908 11.6941 8.56547 11.8001L18 20.1571L27.4345 11.8001C27.6704 11.5972 27.967 11.5082 28.2601 11.5524C28.5531 11.5966 28.8192 11.7703 29.0006 12.0361C29.1821 12.3019 29.2644 12.6384 29.2297 12.9728C29.1951 13.3071 29.0463 13.6125 28.8155 13.8229Z" fill="#3D3E3C"/>
</svg>
